<?xml version="1.0" encoding="UTF-8"?><svg id="uuid-84979f48-4a7b-4c30-ba8d-eaf521ff5cc7" xmlns="http://www.w3.org/2000/svg" viewBox="0 0 142.961024049862317 142.961024049860498"><defs><style>.uuid-b8ef6ce2-697f-4fa4-ad04-d951b79bf35c{fill:#231f20;stroke:#231f20;stroke-miterlimit:10;stroke-width:1.299999952316284px;}.uuid-8182632e-9164-4855-9185-bb4b9338add9{fill:#fff;stroke-width:0px;}</style></defs><g id="uuid-bbb89179-c64f-4950-8a13-f937f3f77b73"><rect class="uuid-b8ef6ce2-697f-4fa4-ad04-d951b79bf35c" x=".649999976158142" y=".649999976158142" width="141.661024097546033" height="141.661024097544214" rx="12" ry="12"/><path class="uuid-8182632e-9164-4855-9185-bb4b9338add9" d="m50.276286407715816,42.60188452570037c-7.397037658445697-.056343283216847-14.793694257951756-.112299905249529-22.190956558043581-.129355097960797-2.398833021466999-.005530770413316-3.606852789112963,3.003424833257668-1.944543690409773,4.694543750014418l.19564334387087.199034078570548c2.496098424298907,2.539358815221931,6.262184697856355-1.280908333765183,3.889087380820456-3.889087380819547-.062573100932241-.068771663762163-.129290807903999-.133950016150266-.19564334387178-.199034078570548-2.531025863069772-2.482639779467718-6.355725381456978,1.34421447504792-3.889087380819547,3.889087380819547,4.697175632394647,4.846156994841294,9.394345636486833,9.692319444955501,14.091521268886027,14.538476439793158l-.430000745212965-3.332521377693411c-3.857410844989317,5.282187259466809-7.714819859608724,10.564375855594335-11.572230704597132,15.846563115061144-1.318021938048332,1.804847595609317.495333603942527,4.033646830712314,2.374544435622738,4.137977746888282.154020233959272.008550968230338.409122871615182.044371147885613.586124730863048.025435388970436,3.530900908092917-.377737774251727,3.536980882934586-5.120289793887423,0-5.50000011920929-.190853927095304-.020489001537499-.394288084125947-.045958181834067-.586124730863048-.025435388970436-1.476652475241281.157973116174617-2.750000059604645,1.150836307930149-2.750000059604645,2.750000059604645,0,1.491914348416685,1.258548922924092,2.749411825176139,2.750000059604645,2.750000059604645,10.062129725473824.003968545121097,20.12425944638926.007948635558932,30.186389171862174.011917181855097,3.539047206025316.001395815106662,3.54478844300229-5.498602039733669,0-5.50000011920929-10.062129725472914-.003968546296164-20.124259446388351-.007948636734-30.186389171862174-.011917181855097v5.50000011920929c.191347540386232-.02047046799089.395004904678899.004917842006762.586124730863048.025435388970436v-5.50000011920929c-.177001859248776.018935758915177-.432104496901957-.016884420740098-.586124730863048-.025435388970436l2.374544435622738,4.137977746888282c3.857410844988408-5.282187259466809,7.714819859607815-10.564375855594335,11.572230704597132-15.846563115061144.717809220564959-.98293981947063.357869133943495-2.519662454649733-.430000745212965-3.332521377693411-4.697175632399194-4.846156994837656-9.39434563649138-9.692319444951863-14.091521268886027-14.538476439793158l-3.889087380819547,3.889087380819547c.066352535966871.065084062420283.133070242939539.130262414808385.19564334387087.199034078570548l3.889087380820456-3.889087380819547-.19564334387178-.199034078570548-1.944543690409773,4.694543750014418c7.397262300091825.017055192711268,14.793918899597884.07301181474395,22.190956558043581.129355097960797,3.539943685780599.026963773725583,3.543478061767019-5.473009424118572,0-5.50000011920929h0Z"/><path class="uuid-8182632e-9164-4855-9185-bb4b9338add9" d="m78.43204665668236,78.433089084179301c9.552676529136079-.063992407387559,19.105787165888614.063992407391197,28.658463695661339,0l-2.374544435622738-1.362022372321007c3.869470775076479,5.031801971867026,7.738943451057821,10.063602481928683,11.6084142261343,15.09540445379389v-2.775955374567275c-2.846164434378807,4.63937145167074-5.692346744809583,9.278731936701661-8.5385111791893,13.918103388372401l2.374544435622738-1.362022372321007c-6.888290881056491.274230876710135-13.780925168958674.406904551993648-20.674667914729071.398048436749377-3.539177663094961-.004546639816908-3.544646900090811,5.495446453282057,0,5.50000011920929,6.423304140810615.008251761608335,12.846319652312559-.103102909308291,19.265189019168247-.343285217000812.92577152071317-.034640670735826,1.970403015008742.053530724106167,2.797456582845371-.430218843730472.835909720395648-.488929595032459,1.274472610665725-1.455866130434515,1.762794217838746-2.251850515736805.819351096270111-1.335576122643033,1.638703554978747-2.671151409456797,2.458056378734-4.006726472318405,1.768077061699842-2.882030261402178,3.536155627630251-5.764059599983739,5.304227330954745-8.646093148656291.462309603661197-.753584701977161.569795083543795-2.035002362748855,0-2.775955374567275-2.530038395707379-3.29002412175214-5.060077603790887-6.580047618786921-7.590116572918305-9.87007129957783-1.240215005645041-1.612756478314623-2.479739231731401-3.226046867695914-3.720645862758829-4.838271213911867-.862505758442239-1.120594207288377-1.575823719829714-1.717732610319217-3.037320505421121-1.746713609580183-.573171856802219-.011365808888513-1.148403827241964.005863109325219-1.721723316769385.00759208731688-5.901593002715344.01779762350634-11.803301125227335-.011995864411801-17.704887105672242-.021060664264951-2.955553381812933-.004539711859252-5.911219274764335-.008700784766916-8.866728993878496.011097873903054-3.537807399934536.023699411542111-3.545715435941929,5.523752505880111,0,5.50000011920929h0Z"/><path class="uuid-8182632e-9164-4855-9185-bb4b9338add9" d="m53.982177644956209,42.650847385506495c-1.469018840434728-.849248952345079-2.938037680972229-1.698497904513715-4.407056521457889-2.547746856770573-.576515838781233-.333287401462258-1.147200933382919-.680640714984293-1.731161671193149-1.000795357370407-.739283346989396-.405309775557726-1.557154730235197-.528814828307077-2.369175151286072-.290255739535496-1.304383194381444.383207685659727-2.078010074424128,1.55014882379237-2.132850100771975,2.865406975783117-.008992355635201.215668551663839.000000017750608.433684478304713.000000026583621.649495090958226l.00000024066685,5.880059635992438c.000000007805284.190707789526641-.004983841186913.382190994228949.000000023446773.572853213579947.034673641761401,1.326471318570839.890048033419589,2.529907160585935,2.204562315299881,2.879903796245344.803324532994338.21388956192277,1.603281350418001.065632131978418,2.318522621655575-.329194305562851.616419900107758-.340275209186075,1.220376156996281-.705507199980275,1.829919129587324-1.057887860153642l3.148390385624225-1.820104459327922.993401882989929-.57429193196549c.04839422583882-.027977009031019.097863324618629-.05472535624358.145446834992072-.084083738207482,1.572718763283774-.970346193686055,2.075029604479823-3.426328005039977.556565986988062-4.713357718452244-.566709426238958-.480335427229875-1.178730618452391-.805456369194872-1.944543690409773-.805456369194872-.674485055714285,0-1.480165193482208.299587308280024-1.944543690409773.805456369194872-.481096059067568.524080277662506-.838260895638996,1.212138317088829-.805456369194872,1.944543690409773.031082050501936.693948770755014.254724001504655,1.477750207055578.805456369194872,1.944543690409773l.063189638402037.053558703195449-.430000745212965-.556566003124317.037913784513876.068142175770845-.277222964124121-.656918737860906.012637930327401.075433912576045v-1.462117898843644l-.01263792415557.075433913614688.277222964123212-.656918737862725-.037913778935945.068142178881317.430000745212965-.556566003126136-.063189634013725.053558708379569.556566003125226-.430000745212965c-1.795165368585003,1.037796490409164-3.590330737183649,2.075592980798319-5.385496105774109,3.113389471198388l-.775098232519667.448089206429358.656918737862725-.277222964123212-.07801872584696.028046052773789.731058949421822-.098232659858695-.078031154002019-.00118539930736.731058949422732.098232659856876-.071712197527631-.026763817269966,1.213484740987951.707223709336176-.059061856421067-.04868920111403.430000745212965.556566003126136-.040080130684146-.066961550839551.277222964124121.656918737860906-.014767020315958-.08158086644471.098232659857786.731058949422732c-.00000008511779-2.079398501684409-.000000170216481-4.158797003368818-.000000255325176-6.238195505053227l-.000000036212441-.884761344628714-.098232659857786.731058949422732.01476701363481-.081580867648881-.277222964123212.656918737862725.040080125196255-.06696155411737-.430000745212055.556566003126136.059061852427476-.048689205950723-1.213484740987951.707223709336176.071712195329383-.026763823145302-.731058949422732.098232659858695.078031153900156-.001185405704746-.731058949422732-.098232659858695.078018728140705.028046046374584-.656918737862725-.277222964123212c1.795165453490881,1.037796343178343,3.590330907106363,2.075592686140226,5.385496360659999,3.113389029211248.258366089734409.14936304760522.516732179477003.298726095195889.775098269202317.44808914281748,1.246036508369798.720341475676832,3.066575382520568.330652017039029,3.762522122907285-.986566748339101.693691193409904-1.312949690416644.343860406993372-2.993393887965794-.986566748338191-3.762522122906375Z"/><path class="uuid-8182632e-9164-4855-9185-bb4b9338add9" d="m83.543980523355458,102.72086968889198c-1.998452853956223-1.155318056873512-3.996905707877886-2.310636113803412-5.99535856181592-3.465954170706027l-.84790811422863-.490180968257846c-1.803863559995079-1.042824772608583-4.137977832480829.282566808018601-4.137977746889192,2.374544435622738.000000094329152,2.305537467689646.000000188727427,4.611074935377474.00000028309023,6.91661240306712l.000000040751729.995658436513622c.000000085591637,2.091977445779776,2.334114112605675,3.417369448676254,4.137977746889192,2.374544435622738,1.998452759336033-1.15531822097546,3.996905518732092-2.310636441845418,5.995358278099047-3.465954662768127l.847908074103543-.490181037848743c1.245848255562123-.720232781834056,1.788734404384741-2.518298116148799.986566748338191-3.762522122906375-.810274196872342-1.256797877858844-2.429510150129317-1.757189428177298-3.762522122907285-.986566748339101-1.998452759336033,1.15531822097546-3.996905518733001,2.310636441843599-5.995358278099047,3.465954662768127l-.847908074103543.490181037848743,4.137977746889192,2.374544435622738c-.000000094329152-2.305537467689646-.000000188727427-4.611074935377474-.00000028309023-6.91661240306712l-.000000040751729-.995658436513622-4.137977746889192,2.374544435622738c1.998452853955314,1.155318056873512,3.996905707877886,2.310636113803412,5.99535856181592,3.465954170706027l.84790811422863.490180968257846c1.24603650842073.720341475582245,3.066575382486008.330652017104512,3.762522122907285-.986566748339101.693691193367158-1.31294969033479.34386040704976-2.993393888065839-.986566748338191-3.762522122906375Z"/><path class="uuid-8182632e-9164-4855-9185-bb4b9338add9" d="m72.78421413468277,78.043453331330966c1.998452476932471,1.155318710752908,3.99690495376035,2.310637421685897,5.99535743064007,3.465956132527936.282635984750414.163393748571252.565271969492642.326787497155237.847907954249422.490181245713757,1.803863856462158,1.042825730948607,4.137977149701328-.282567532723988,4.137977746889192-2.374544435622738.000000658152203-2.305537467687827.000001316177986-4.611074935377474.000001974268343-6.91661240306712l.000000284198904-.995658436513622c.000000597187864-2.091978170485163-2.334114409074573-3.41736849033623-4.137977746889192-2.374544435622738-1.998453136358876,1.155317567094244-3.996906272850538,2.310635133961114-5.995359409273988,3.465952700944399-.282636078027281.16339358679943-.565272156064566.326787173580669-.847908234082752.490180760394651-1.245848503260277.720232381519963-1.788734222505809,2.518298398255865-.986566748338191,3.762522122906375.810274412770923,1.256798212732974,2.429509890222107,1.757188996893092,3.762522122907285.986566748339101,1.998453136358876-1.155317567094244,3.996906272849628-2.310635133962933,5.995359409273988-3.465952700944399.282636078027281-.16339358679943.565272156063656-.326787173580669.847908234082752-.490180760394651l-4.137977746889192-2.374544435622738c-.000000658152203,2.305537467689646-.000001316177986,4.611074935377474-.000001974268343,6.91661240306712l-.000000284198904.995658436513622,4.137977746889192-2.374544435622738c-1.998452476931561-1.155318710752908-3.99690495376035-2.310637421685897-5.99535743064007-3.465956132527936-.282635984750414-.163393748571252-.565271969492642-.326787497155237-.847907954249422-.490181245713757-1.246036284634101-.720341889802512-3.066575537075551-.330651724512791-3.762522122907285.986566748339101-.693691383211444,1.312950049654319-.343860162318379,2.993393449138239.986566748338191,3.762522122906375Z"/><path class="uuid-8182632e-9164-4855-9185-bb4b9338add9" d="m58.68557541588325,47.972526942567129c7.861789593720459.000002299168045,15.723579187440009.000000046547939,23.585368781160469,0l-2.374544435622738-4.137977746888282c-7.461691309608796,16.17866382871216-14.898544161861537,32.368798816860362-22.328217814066193,48.562186867877244-1.729655241407272,3.769880055266185-3.458683196678976,7.540048004031632-5.186653582323743,11.310700654501488-.843155773432045,1.839873864888432.133518016714333,4.137977724965822,2.374544435622738,4.137977746888282,8.259916212433382.00000008079769,16.519832346789372.000119470165373,24.779748522934824.000951811132836,3.539002946650726.000356620705134,3.544833896284217-5.499642910926923,0-5.50000011920929-8.259916176148181-.000832340967463-16.519832310497804-.000951730335146-24.779748522934824-.000951811132836l2.374544435622738,4.137977746888282c7.113673125802052-15.522945676160816,14.239889170988135-31.040161622095184,21.378379816414053-46.551709870289415,2.043841359020917-4.441155060196252,4.088984563283702-8.881711271680615,6.136491579975882-13.321177652089318.848248964713093-1.839198952853621-.137319978999585-4.137977760134163-2.374544435622738-4.137977746888282-7.861789593720459.000000046547939-15.723579187440009.000002299168045-23.585368781160469,0-3.538987661828287-.000001034972229-3.544849309126221,5.499999082523573,0,5.50000011920929h0Z"/></g></svg>